Complete name : My-Soul-To-Take-3D.2010.R5.XVID.READNFO.LICKME.RG

Format : AVI

Format/Info : Audio Video Interleave

File size : 1.14 GiB

Duration : 1h 42mn

Overall bit rate : 1 585 Kbps

Writing application : VirtualDubMod 1.5.4.1 (build 2178/release)

Writing library : VirtualDub build 32706/release



Video

ID : 0

Format : MPEG-4 Visual

Format profile : Advanced Simple@L5

Format settings, BVOP : Yes

Format settings, QPel : No

Format settings, GMC : No warppoints

Format settings, Matrix : Custom

Codec ID : XVID

Codec ID/Hint : XviD

Duration : 1h 42mn

Bit rate : 1 447 Kbps

Width : 720 pixels

Height : 304 pixels

Display aspect ratio : 2.35:1

Frame rate : 25.000 fps

Color space : YUV

Chroma subsampling : 4:2:0

Bit depth : 8 bits

Scan type : Progressive

Compression mode : Lossy

Bits/(Pixel*Frame) : 0.264

Stream size : 1.04 GiB (91%)

Writing library : XviD 1.2.1 (UTC 2008-12-04)



Audio

ID : 1

Format : MPEG Audio

Format version : Version 1

Format profile : Layer 3

Codec ID : 55

Codec ID/Hint : MP3

Duration : 1h 42mn

Bit rate mode : Constant

Bit rate : 128 Kbps

Channel(s) : 2 channels

Sampling rate : 44.1 KHz

Compression mode : Lossy

Stream size : 94.1 MiB (8%)

Alignment : Split accross interleaves

Interleave, duration : 40 ms (1.00 video frame)

Interleave, preload duration : 500 ms

Writing library : LAME3.98.4







Notes



Video used is the 3D 2010 D DVDRip ELEKTRI4KA R5 Thanks

This video is watchable even tho its 3d you really dont notice it.

Its pretty clear for being in 3d so enjoy for now.



Audio is cam but there isnt any line out as of yet.So used cam thats out not too bad

for cam,this should be good untill a 2d with line comes around.
